<svg width="478" height="327" viewBox="0 0 478 327" fill="none" xmlns="http://www.w3.org/2000/svg">
<path d="M431.08 0H266.35C242.05 0 222.34 19.7 222.34 44.01V159.33C222.34 178.91 235.13 195.49 252.81 201.21L253.16 60.66C253.16 44.93 265.91 32.18 281.64 32.18H414.6C430.33 32.18 443.08 44.93 443.08 60.66H294.46C288.93 60.66 284.44 65.15 284.44 70.68V81.63C284.44 86.44 288.34 90.33 293.14 90.33H397.58V120.4H284.44V203.34H431.06C455.36 203.34 475.07 183.64 475.07 159.33V44.01C475.07 19.71 455.37 0 431.06 0H431.08Z" fill="#AFCB21"/>
<path d="M222.34 58.18V196.55C222.34 216.15 206.34 232.09 186.67 232.09H68.37C48.7 232.09 32.7 216.15 32.7 196.55V181.52C32.7 161.92 48.7 145.98 68.37 145.98H186.67C187.76 145.98 188.83 146.04 189.9 146.13V56.18H44.43C20.13 56.18 0.420044 75.88 0.420044 100.19V220.05C0.420044 244.35 20.12 264.06 44.43 264.06H209.16C233.46 264.06 253.17 244.36 253.17 220.05V100.19C253.17 80.48 240.21 63.8 222.35 58.2L222.34 58.18Z" fill="#00929F"/>
<path d="M68.3801 174.72C64.6201 174.72 61.5701 177.76 61.5701 181.51V196.54C61.5701 200.28 64.6201 203.33 68.3801 203.33H186.68C190.44 203.33 193.49 200.29 193.49 196.54V181.51C193.49 177.77 190.44 174.72 186.68 174.72H68.3801Z" fill="#00929F"/>
<path d="M341.1 236.17C340.75 239.02 340.19 241.8 339.4 244.53C338.62 247.26 337.44 249.82 335.87 252.2C333.2 256.44 329.57 259.72 324.98 262.04C320.39 264.36 315.6 265.52 310.61 265.52C302.13 265.52 294.94 262.52 289.05 256.5C283.15 250.49 280.21 243.27 280.21 234.85C280.21 226.43 283.26 219.65 289.36 213.64C295.46 207.63 302.54 204.62 310.61 204.62C318.68 204.62 325.04 207 330.38 211.76C335.72 216.52 339.24 222.62 340.92 230.05L322.45 231.18C321.29 228.68 319.74 226.67 317.79 225.13C315.84 223.59 313.42 222.82 310.52 222.82C307.15 222.82 304.28 224.08 301.9 226.61C299.52 229.14 298.33 232.03 298.33 235.28C298.33 238.53 299.56 241.44 302.03 243.82C304.5 246.2 307.36 247.39 310.61 247.39C314.21 247.39 317.06 246.28 319.15 244.06C321.24 241.84 322.52 239.06 322.98 235.72L341.1 236.16V236.17Z" fill="#5C6063"/>
<path d="M346.94 234.08C346.94 225.83 349.96 218.87 356 213.17C362.04 207.48 369.12 204.63 377.25 204.63C385.38 204.63 392.59 207.48 398.72 213.17C404.85 218.86 407.91 225.86 407.91 234.16C407.91 242.46 404.98 249.91 399.11 256.16C393.24 262.4 386.01 265.52 377.42 265.52C368.83 265.52 361.59 262.4 355.73 256.16C349.86 249.92 346.93 242.59 346.93 234.16V234.07L346.94 234.08ZM363.93 234.34C363.93 238.12 365.21 241.46 367.76 244.36C370.31 247.27 373.51 248.72 377.34 248.72C381.17 248.72 384.47 247.25 387.05 244.32C389.63 241.39 390.93 238.06 390.93 234.35C390.93 230.64 389.56 227.63 386.84 225.16C384.11 222.69 380.95 221.46 377.34 221.46C373.73 221.46 370.68 222.72 367.98 225.25C365.28 227.78 363.93 230.84 363.93 234.44V234.35V234.34Z" fill="#5C6063"/>
<path d="M416.01 220.49C416.01 216.25 417.67 212.55 420.98 209.38C424.29 206.22 428.06 204.63 432.3 204.63C435.44 204.63 438.21 205.33 440.62 206.72C443.03 208.11 445.02 210.15 446.59 212.82C447.87 210.5 449.71 208.59 452.12 207.11C454.53 205.63 457.07 204.8 459.74 204.63H460.61C466.07 204.63 470.24 206.45 473.11 210.07C475.98 213.7 477.42 218.07 477.42 223.18V264.03H460.35V225.35C460.29 224.65 460.09 224 459.74 223.39C459.39 222.78 458.81 222.47 458 222.47C457.13 222.47 456.49 222.77 456.08 223.39C455.67 224 455.41 224.68 455.3 225.44V264.03H438.14V225.35C438.08 224.65 437.88 224 437.53 223.39C437.18 222.78 436.6 222.47 435.79 222.47C434.86 222.47 434.19 222.82 433.79 223.51C433.38 224.21 433.18 224.96 433.18 225.78V264.02H416.02V220.46L416.01 220.49Z" fill="#5C6063"/>
<path d="M14.37 284.6V296.01C14.15 295.93 13.92 295.84 13.69 295.74C13.45 295.64 13.23 295.59 13.01 295.59C12.37 295.59 11.83 295.94 11.39 296.65C10.95 297.36 10.73 298.15 10.73 299.04C10.73 299.73 10.89 300.52 11.21 301.43C11.53 302.34 11.88 303.34 12.27 304.42C12.66 305.55 13.01 306.75 13.33 308.02C13.65 309.29 13.81 310.63 13.81 312.04C13.81 316.07 12.8 319.41 10.78 322.05C8.76 324.69 6.39999 326.01 3.68999 326.01C3.04999 326.01 2.41999 325.89 1.79999 325.65C1.17999 325.41 0.58 325.11 0 324.74V313.03C0.33 313.35 0.669989 313.6 1.01999 313.78C1.36999 313.96 1.72 314.05 2.08 314.05H2.40999C2.95999 313.93 3.47 313.59 3.92 313.02C4.37 312.45 4.59999 311.75 4.59999 310.9C4.59999 310.25 4.45 309.5 4.14 308.63C3.84 307.76 3.48999 306.78 3.09999 305.69C2.73999 304.6 2.4 303.38 2.08 302.02C1.76 300.67 1.59999 299.2 1.59999 297.63C1.59999 293.9 2.52 290.67 4.36 287.92C6.2 285.18 8.41999 283.8 11.02 283.8C11.6 283.8 12.17 283.87 12.74 284.01C13.31 284.15 13.85 284.36 14.38 284.64V284.58L14.37 284.6Z" fill="#5C6063"/>
<path d="M27.43 324.99H19.1V284.73H27.43V324.99Z" fill="#5C6063"/>
<path d="M46.51 284.6V296.01C46.29 295.93 46.06 295.84 45.83 295.74C45.59 295.64 45.37 295.59 45.15 295.59C44.51 295.59 43.97 295.94 43.53 296.65C43.09 297.36 42.87 298.15 42.87 299.04C42.87 299.73 43.03 300.52 43.35 301.43C43.67 302.34 44.02 303.34 44.41 304.42C44.8 305.55 45.15 306.75 45.47 308.02C45.79 309.29 45.95 310.63 45.95 312.04C45.95 316.07 44.94 319.41 42.92 322.05C40.9 324.69 38.54 326.01 35.83 326.01C35.19 326.01 34.56 325.89 33.94 325.65C33.32 325.41 32.72 325.11 32.14 324.74V313.03C32.47 313.35 32.81 313.6 33.16 313.78C33.51 313.96 33.86 314.05 34.22 314.05H34.55C35.1 313.93 35.61 313.59 36.06 313.02C36.51 312.45 36.74 311.75 36.74 310.9C36.74 310.25 36.59 309.5 36.28 308.63C35.98 307.76 35.63 306.78 35.24 305.69C34.88 304.6 34.54 303.38 34.22 302.02C33.9 300.67 33.74 299.2 33.74 297.63C33.74 293.9 34.66 290.67 36.5 287.92C38.34 285.18 40.56 283.8 43.16 283.8C43.74 283.8 44.31 283.87 44.88 284.01C45.45 284.15 45.99 284.36 46.52 284.64V284.58L46.51 284.6Z" fill="#5C6063"/>
<path d="M63.84 324.99H55.59V296.2H49.29V284.73H70.06V296.2H63.84V324.99Z" fill="#5C6063"/>
<path d="M89.01 309.42H83.62C83.62 309.42 83.57 309.48 83.56 309.48H83.5C83.03 309.48 82.59 309.59 82.19 309.81C81.79 310.03 81.59 310.58 81.59 311.47C81.59 312.36 81.78 312.86 82.15 313.1C82.52 313.34 82.93 313.48 83.37 313.52H89.51V324.99H82.75C81.53 324.99 80.39 324.81 79.33 324.45C78.27 324.09 77.25 323.28 76.28 322.03C75.45 320.94 74.81 319.66 74.35 318.17C73.89 316.68 73.67 315.13 73.67 313.52V295.71C73.67 292.72 74.48 290.14 76.1 287.97C77.72 285.8 79.53 284.72 81.55 284.72L89.51 284.66V296.31H83.99C83.99 296.31 83.94 296.37 83.93 296.37H83.87C83.43 296.37 83.03 296.51 82.67 296.79C82.31 297.07 82.13 297.6 82.13 298.36C82.13 299.06 82.3 299.55 82.63 299.82C82.96 300.09 83.32 300.27 83.71 300.35H89.02V309.4L89.01 309.42Z" fill="#5C6063"/>
<path d="M94.77 294.81C94.77 291.87 95.56 289.31 97.13 287.11C98.71 284.92 100.5 283.82 102.52 283.82C104.01 283.82 105.33 284.3 106.48 285.27C107.63 286.24 108.57 287.65 109.32 289.5C109.93 287.89 110.81 286.57 111.95 285.55C113.1 284.52 114.31 283.95 115.58 283.83H115.99C118.59 283.83 120.57 285.09 121.94 287.6C123.31 290.12 123.99 293.14 123.99 296.68V324.99H115.86V298.19C115.83 297.71 115.74 297.25 115.57 296.83C115.4 296.41 115.13 296.2 114.74 296.2C114.33 296.2 114.02 296.41 113.83 296.83C113.64 297.25 113.51 297.73 113.46 298.25V324.99H105.29V298.19C105.26 297.71 105.17 297.25 105 296.83C104.83 296.41 104.56 296.2 104.17 296.2C103.73 296.2 103.41 296.44 103.22 296.92C103.03 297.4 102.93 297.93 102.93 298.49V324.99H94.76V294.81H94.77Z" fill="#5C6063"/>
<path d="M139.56 315.39H137.32V324.99H128.99V299.03C128.99 294.48 129.92 290.81 131.77 288.01C133.62 285.21 136.14 283.81 139.32 283.81C142.28 283.81 144.65 285.32 146.43 288.34C148.21 291.36 149.1 294.94 149.1 299.09V324.99H140.77V298.73C140.74 298.05 140.6 297.4 140.33 296.8C140.07 296.2 139.67 295.88 139.15 295.83C138.54 295.83 138.09 296.16 137.78 296.83C137.48 297.49 137.32 298.25 137.32 299.09V304.83H139.56V315.39Z" fill="#5C6063"/>
<path d="M167.88 284.6V296.01C167.66 295.93 167.43 295.84 167.2 295.74C166.96 295.64 166.74 295.59 166.52 295.59C165.88 295.59 165.34 295.94 164.9 296.65C164.46 297.36 164.24 298.15 164.24 299.04C164.24 299.73 164.4 300.52 164.72 301.43C165.04 302.34 165.39 303.34 165.78 304.42C166.17 305.55 166.52 306.75 166.84 308.02C167.16 309.29 167.32 310.63 167.32 312.04C167.32 316.07 166.31 319.41 164.29 322.05C162.27 324.69 159.91 326.01 157.2 326.01C156.56 326.01 155.93 325.89 155.31 325.65C154.69 325.41 154.09 325.11 153.51 324.74V313.03C153.84 313.35 154.18 313.6 154.53 313.78C154.88 313.96 155.23 314.05 155.59 314.05H155.92C156.47 313.93 156.98 313.59 157.43 313.02C157.88 312.45 158.11 311.75 158.11 310.9C158.11 310.25 157.96 309.5 157.65 308.63C157.35 307.76 157 306.78 156.61 305.69C156.25 304.6 155.91 303.38 155.59 302.02C155.27 300.67 155.11 299.2 155.11 297.63C155.11 293.9 156.03 290.67 157.87 287.92C159.71 285.18 161.93 283.8 164.53 283.8C165.11 283.8 165.68 283.87 166.25 284.01C166.82 284.15 167.36 284.36 167.89 284.64V284.58L167.88 284.6Z" fill="#5C6063"/>
<path d="M199.47 309.42H194.08C194.08 309.42 194.03 309.48 194.02 309.48H193.96C193.49 309.48 193.05 309.59 192.65 309.81C192.25 310.03 192.05 310.58 192.05 311.47C192.05 312.36 192.24 312.86 192.61 313.1C192.98 313.34 193.39 313.48 193.83 313.52H199.97V324.99H193.21C191.99 324.99 190.85 324.81 189.79 324.45C188.73 324.09 187.71 323.28 186.74 322.03C185.91 320.94 185.27 319.66 184.81 318.17C184.35 316.68 184.13 315.13 184.13 313.52V295.71C184.13 292.72 184.94 290.14 186.56 287.97C188.18 285.8 189.99 284.72 192.01 284.72L199.97 284.66V296.31H194.45C194.45 296.31 194.4 296.37 194.39 296.37H194.33C193.89 296.37 193.49 296.51 193.13 296.79C192.77 297.07 192.59 297.6 192.59 298.36C192.59 299.06 192.76 299.55 193.09 299.82C193.42 300.09 193.78 300.27 194.17 300.35H199.48V309.4L199.47 309.42Z" fill="#5C6063"/>
<path d="M225.39 324.99H217.05V284.73H225.39V324.99Z" fill="#5C6063"/>
<path d="M230.66 298.49C230.66 294.59 231.6 291.17 233.48 288.23C235.36 285.29 237.68 283.82 240.45 283.82C243.22 283.82 245.74 285.22 247.71 288.02C249.67 290.82 250.65 294.33 250.65 298.55V324.99H242.4V298.91C242.4 298.15 242.24 297.49 241.92 296.95C241.6 296.41 241.17 296.13 240.61 296.13C240.05 296.13 239.62 296.41 239.3 296.98C238.98 297.54 238.82 298.21 238.82 298.97V324.99H230.65V298.49H230.66Z" fill="#5C6063"/>
<path d="M264.08 314.49H261.3V324.99H253.13V299.21C253.13 295.11 254.16 291.51 256.22 288.43C258.28 285.35 260.75 283.81 263.62 283.81C265.33 283.81 266.9 284.37 268.33 285.5C269.75 286.63 270.98 288.16 272 290.09L265.24 297.21C265.07 296.61 264.85 296.08 264.56 295.64C264.27 295.2 263.89 294.98 263.42 294.98C262.73 294.98 262.2 295.3 261.84 295.95C261.48 296.59 261.3 297.4 261.3 298.37V303.68H264.08V314.49Z" fill="#5C6063"/>
<path d="M272.29 304.22C272.29 298.51 273.73 293.68 276.6 289.73C279.47 285.79 282.85 283.81 286.72 283.81C290.59 283.81 294.02 285.78 296.94 289.73C299.86 293.67 301.32 298.52 301.32 304.28C301.32 310.04 299.92 315.2 297.13 319.52C294.34 323.84 290.9 326.01 286.8 326.01C282.7 326.01 279.27 323.85 276.47 319.52C273.67 315.19 272.28 310.11 272.28 304.28V304.22H272.29ZM280.38 304.4C280.38 307.02 280.99 309.33 282.2 311.34C283.42 313.35 284.94 314.36 286.76 314.36C288.58 314.36 290.15 313.34 291.38 311.31C292.61 309.28 293.23 306.97 293.23 304.4C293.23 301.83 292.58 299.74 291.28 298.03C289.98 296.32 288.47 295.46 286.76 295.46C285.05 295.46 283.59 296.34 282.3 298.08C281.01 299.83 280.37 301.95 280.37 304.45V304.39L280.38 304.4Z" fill="#5C6063"/>
<path d="M313.63 324.99H305.42V284.73H316.78C319.19 284.77 321.38 286.02 323.37 288.47C325.36 290.93 326.36 294 326.36 297.71C326.36 299.84 326.05 301.83 325.43 303.69C324.81 305.54 323.9 307.13 322.71 308.46L327.48 325H318.81L314.83 312.02V301.7C314.89 301.74 314.95 301.76 315.02 301.76H315.25C315.97 301.72 316.63 301.5 317.24 301.1C317.85 300.7 318.15 299.83 318.15 298.5C318.15 297.53 317.91 296.83 317.44 296.39C316.97 295.95 316.44 295.71 315.86 295.67H315.65L313.62 295.61V325.01L313.63 324.99Z" fill="#5C6063"/>
<path d="M329.97 294.81C329.97 291.87 330.76 289.31 332.33 287.11C333.91 284.92 335.7 283.82 337.72 283.82C339.21 283.82 340.53 284.3 341.68 285.27C342.83 286.24 343.77 287.65 344.52 289.5C345.13 287.89 346.01 286.57 347.15 285.55C348.3 284.52 349.51 283.95 350.78 283.83H351.2C353.8 283.83 355.78 285.09 357.15 287.6C358.52 290.12 359.2 293.14 359.2 296.68V324.99H351.07V298.19C351.04 297.71 350.95 297.25 350.78 296.83C350.61 296.41 350.34 296.2 349.95 296.2C349.54 296.2 349.23 296.41 349.04 296.83C348.85 297.25 348.72 297.73 348.67 298.25V324.99H340.5V298.19C340.47 297.71 340.38 297.25 340.21 296.83C340.04 296.41 339.77 296.2 339.38 296.2C338.94 296.2 338.62 296.44 338.43 296.92C338.24 297.4 338.14 297.93 338.14 298.49V324.99H329.97V294.81Z" fill="#5C6063"/>
<path d="M374.75 315.39H372.51V324.99H364.18V299.03C364.18 294.48 365.11 290.81 366.96 288.01C368.81 285.21 371.33 283.81 374.51 283.81C377.47 283.81 379.84 285.32 381.62 288.34C383.4 291.36 384.29 294.94 384.29 299.09V324.99H375.96V298.73C375.93 298.05 375.79 297.4 375.52 296.8C375.26 296.2 374.86 295.88 374.34 295.83C373.73 295.83 373.28 296.16 372.97 296.83C372.67 297.49 372.51 298.25 372.51 299.09V304.83H374.75V315.39Z" fill="#5C6063"/>
<path d="M402.16 324.99H393.91V296.2H387.61V284.73H408.38V296.2H402.16V324.99Z" fill="#5C6063"/>
<path d="M420.32 324.99H411.99V284.73H420.32V324.99Z" fill="#5C6063"/>
<path d="M453.45 305.67C453.28 307.64 453.01 309.57 452.64 311.46C452.27 313.35 451.71 315.12 450.96 316.77C449.69 319.71 447.96 321.98 445.78 323.59C443.6 325.2 441.32 326.01 438.94 326.01C434.9 326.01 431.48 323.93 428.68 319.76C425.88 315.59 424.47 310.59 424.47 304.76C424.47 298.93 425.92 294.23 428.82 290.06C431.72 285.89 435.09 283.81 438.94 283.81C442.79 283.81 445.81 285.46 448.35 288.76C450.89 292.06 452.57 296.29 453.37 301.44L444.58 302.23C444.03 300.5 443.29 299.1 442.36 298.03C441.43 296.96 440.28 296.43 438.9 296.43C437.3 296.43 435.93 297.31 434.79 299.06C433.66 300.81 433.09 302.81 433.09 305.07C433.09 307.33 433.68 309.34 434.85 310.99C436.02 312.64 437.39 313.46 438.93 313.46C440.64 313.46 442 312.69 442.99 311.15C443.99 309.61 444.59 307.68 444.81 305.37L453.43 305.67H453.45Z" fill="#5C6063"/>
<path d="M467.88 315.39H465.64V324.99H457.31V299.03C457.31 294.48 458.24 290.81 460.09 288.01C461.94 285.21 464.46 283.81 467.64 283.81C470.6 283.81 472.97 285.32 474.75 288.34C476.53 291.36 477.42 294.94 477.42 299.09V324.99H469.09V298.73C469.06 298.05 468.92 297.4 468.65 296.8C468.39 296.2 467.99 295.88 467.47 295.83C466.86 295.83 466.41 296.16 466.1 296.83C465.8 297.49 465.64 298.25 465.64 299.09V304.83H467.88V315.39Z" fill="#5C6063"/>
</svg>
